<?xml version="1.0" encoding="UTF-8"?>
<svg id="Layer_1" data-name="Layer 1" xmlns="http://www.w3.org/2000/svg" viewBox="0 0 96.31 74.02">
  <path d="m95.83,27.79c-.19-.51-.45-1.01-1.05-1.04-.53-.03-.78.44-1.06.84-.24.34-.2.91-.79,1.11-.04-.32-.06-.55-.1-.78-.15-.73-.1-1.77-1.02-1.82-.96-.05-.98,1.02-1.13,1.71-.24,1.08-.35,2.19-.54,3.43-.64-.68-.6-1.39-.82-1.99-.65-1.82-1.52-3.51-3.1-4.68-1.56-1.15-2.56-.68-2.74,1.19-.04.39-.02.7-.5.89-1.44.55-1.97,1.81-2.39,3.16-.72,2.33.17,4.4.98,6.48.31.79.46,1.46-.72,1.4-3.95-.2-7.73-.82-10.41-4.2-.29-.36-.66-.72-1.08-.91-2.79-1.27-5.16-3.21-7.75-4.81-2.93-1.81-5.82-3.92-9.62-2.17-.65.3-1.44-.3-1.76-.94-.36-.73.45-.77.87-.99.72-.37,1.12-1,1.46-1.69-1.84,1.33-3.8,1.83-5.99.91-1.41-.59-2.21-1.77-3.21-2.84-1.11-1.18.04-1.31.1-1.95.31-3.47,3.4-2.32,5.18-3.29.62-.34.63.74,1.31.81,1.33.13,2.62.4,3.91-.15.24-.1.51-.14.86-.23-.32,1.18-2.01.67-1.97,1.58.04.85.36,1.66.15,2.6-.18.79-.09,1.66-.3,2.48.77-.91,1.77-1.35,2.91-1.64,2.26-.58,4.45-1.37,6.53-2.45,2.38-1.24,3.59-3.23,3.47-5.91-.2-4.33-2.31-7.58-6-9.75C56.05.12,52.23-.31,48.33.19c-4.05.51-5.02,1.9-4.63,6.04.07.73-.12,1.27-.83,1.64-1.06.55-2.14,1.05-3.36,1.06-1.43.02-2.85.04-4.28.04-3.38,0-6.53.7-9.14,3-1.56,1.38-2.36,3.13-1.89,5.23.48,2.17,2.17,2.98,4.15,3.37,1.18.23,2.37.15,3.56.1,2.41-.09,2.41-.11,2.44,2.25.02,2.27.97,3.02,3.16,2.5,2.25-.53,4.12-2.13,6.55-2.24.66-.03,1.06.19,1.48.45.49.32.48.87.31,1.42-.17.55-.54.75-1.08.72-.57-.03-1.16.01-1.7-.12-2.73-.69-4.92.26-6.89,2.09-1.74,1.62-3.43,3.29-5.42,4.62-.36.24-.69.53-.79.98-.19.89-.86,1.32-1.58,1.73-4.45,2.56-9.38,3.25-14.38,3.64-.2.02-.37-.07-.42-.37,1.26-1.05,2.39-2.27,2.91-3.9.55-1.73.76-3.49-.58-4.96-.4-.44-.66-.85-.83-1.41-.47-1.55-1.46-2.66-3.11-3.02-1.61-.35-2.74.47-3.68,1.65-.48.6-.89,1.25-1.4,1.97-.33-.72-.16-1.29-.2-1.84-.04-.47-.2-.88-.67-.99-.44-.1-.66.3-.85.63-.73,1.3-1.08,2.73-1.42,4.17-.25,1.05-.21,2.17-.78,3.36,0-1.88.02-3.54-.01-5.2,0-.47-.15-1-.72-1.1-.53-.1-.89.25-1.14.69-.38.66-.72,1.35-.77,2.13-.2,2.84-.53,5.68-.27,8.54.61,6.62,6.59,12.12,12.99,11.78,3.5-.19,7-.48,10.34-1.82,3.18-1.27,5.79-3.55,9.02-4.74,1.44-.53,2.62-1.78,4.22-2.92-.18,3.21-.86,5.95-1.91,8.56-.33.81-.17,1.92-1.48,2.36-2.15.73-4.25,1.66-6.28,2.69-4.3,2.16-8.37,4.7-12,7.89-1.45,1.27-2.6,2.77-3.06,4.71-.73,3.07,1.06,5.78,4.16,6.26,1.51.23,3.04.32,4.55.02,8.66-1.71,17.35-3.32,25.87-5.68.83-.23,1.52-.23,2.28.27,3.32,2.14,7.03,3.38,10.85,4.16,5.79,1.2,11.67,1.4,17.6,1.26,2.37-.06,4.1-.88,5.68-2.43,1.39-1.36,1.81-2.98,1.24-4.83-.93-2.99-2.66-5.48-5.12-7.38-5.03-3.89-10.62-6.8-16.47-9.24-.56-.24-1.15-.37-1.38-1.09-.98-2.98-1.79-6.01-2.13-9.14-.04-.34-.2-.76.33-1.03,2.05,1.89,4.1,3.8,6.18,5.67.53.48,1.09,1.21,1.85.18.35-.47.77-.06,1.11.18,2.71,1.85,5.75,2.99,8.87,3.78,4.65,1.18,9.08.46,12.61-2.97,4.09-3.97,6.17-8.95,6.28-14.68.02-1.04-.1-2.09-.48-3.08Zm-31.02-17.25c.53,2.61-.44,4.86-2.77,6.16-1.31.73-2.7,1.3-4.06,1.95-.03-.06-.07-.13-.1-.19.73-.58,1.46-1.15,2.18-1.74.75-.61,1.42-1.25,1.21-2.37-.04-.22.03-.47.08-.7.79-3.54-.64-6.27-2.98-8.8-1.09-1.18-2.56-1.89-3.54-3.18,4.72.47,9.06,4.33,9.98,8.87Zm-20.83-2.38c.62-1.25.04-2.52.08-3.77,0-.32-.03-.76.37-.84.53-.1.31.58.45.63.96.39,1.42,1.39,2.4,1.8,1.82.75,3.7,1.27,5.58,1.82.48.14.94.42,1.36.71.82.57.91,1.7.13,2.31-.69.54-1.37,1.13-2.35,1.15.17-.15.36-.29.52-.45.29-.29.8-.56.62-1.01-.13-.35-.65-.29-1.03-.32-1.62-.15-3.19-.63-4.85-.47-1.07.11-1.99-.53-2.9-1.05-.22-.13-.49-.28-.37-.51Zm-11.16,11.38c-1.7.27-3.41.34-5.09-.11-1.39-.38-2.58-1.1-2.96-2.59-.4-1.59.24-2.9,1.46-3.91.86-.71,1.75-1.41,2.98-1.52-.86.73-1.43,1.66-2.14,2.48-.42.49-.41.77-.15,1.2.83,1.33,1.82,2.36,3.53,2.55,1.34.15,2.59.72,3.77,1.4.46.26.8.62.78,1.32-.49-1.03-1.28-.95-2.18-.81Zm-3.23,23.95c-3.08,1.55-6.09,3.25-9.46,4.15-2.68.72-5.32,1.29-8.17,1.29-6.8-.02-10.62-5.19-11.17-10.37-.28-2.65-.11-5.32.38-7.95.11-.6.2-1.23,1.04-1.73.17,1,.09,1.83,0,2.66-.16,1.47-.23,2.95.29,4.37.16.42.31,1.04.89.96.52-.07.41-.66.49-1.06.48-2.47.61-5,1.42-7.41.11-.34.13-.76.69-.95.13,3.07-.85,6.2.55,9.11-.36-2.65.29-5.08,1.45-7.4.41-.81.97-1.53,1.69-2.1,1.54-1.22,3.13-1,4.3.58.23.31.54.6.25,1-.24.34-.62.4-1.02.34-.7-.1-1.36-.41-2.1-.19-1.7.51-2.34,1.87-2.66,3.4-.28,1.34-.03,2.66.56,3.89.64,1.32,1.7,1.61,2.93.76,1.48-1.02,2.12-2.51,2.13-4.28,0-.24-.09-.47-.09-.71,0-.68.04-1.42.95-1.47.88-.05,1.09.6,1.15,1.32.07.83-.17,1.59-.5,2.34-.72,1.61-1.9,2.82-3.25,3.91-.39.31-1,.62-.78,1.23.2.56.86.54,1.35.59,3.7.34,7.29-.26,10.83-1.32,2.14-.64,4.11-1.67,6.13-2.97.34,2.49.45,4.81.53,7.12.02.54-.43.7-.8.89Zm-16.18-11.22c.03,1.44-.6,2.55-1.7,3.43-.58.46-1.24.57-1.81.03-.98-.92-.99-2.09-.69-3.3.29-1.17.85-2.13,2.14-2.38,1.53-.3,2.03.25,2.06,2.23Zm44.85-4.88c-.78.02-1.59.31-2.32-.2.8-.2,1.58-.3,2.32.2Zm-13.59-1.02c1.26.59,1.55-.27,1.7-1.11.14-.74.23-1.31,1.17-1.17.79.12,1.76-.42,2.03,1.06.28,1.56,1.87,1.76,3.16,2.2-2.66,2.18-7.54,1.81-9.37-.65.37-.37.93-.5,1.31-.32Zm17.25,3.84c-8.54.67-17.11-.3-25.65.41,8.52-1.75,17.1-.52,25.65-.41Zm-29.38,10c1.2-.01,2.38-.42,3.61-.07-1.2.05-2.39.42-3.61.07Zm27.29,10.21c.58-.46,1.09-.21,1.58.05.97.5,1.95,1,2.86,1.59,4.52,2.9,9.42,5.15,13.77,8.33,2.2,1.61,3.87,3.64,4.99,6.12.77,1.71.59,2.52-.72,3.84-1.28,1.29-2.68,2.04-4.61,2.11-3.9.13-7.65-.8-11.47-1.22-2.26-.25-4.56-.47-6.76-1.02-3.03-.75-6.05-1.59-9.1-2.28-.34-.08-.73-.14-1.07-.65,3.8-1.2,7.44-2.7,11.35-3.24,2.78-.39,5.45-1.33,8.28-1.43.39-.01.81-.15.76-.65-.04-.45-.49-.68-.84-.59-2.53.62-3.72-1.23-4.98-2.76-2.4-2.91-5.31-3.69-8.92-2.8-3.09.76-6.25,1.19-9.29,2.14-1.71.53-3.39.07-4.96-.69-1.59-.77-3.19-1.46-4.95-1.76-1.58-.27-3,.09-4.03,1.27-2.22,2.55-4.24,5.25-5.18,8.58-.5,1.78-.17,2.49,1.22,3.63.93.76,1.67.52,2.41-.11,1.87-1.61,3.73-3.26,5.1-5.35.41-.63.92-1.01,1.64-1.26,4.95-1.71,10.01-2.99,15.09-4.21.61-.15,1.26-.27,1.81.07,2.66,1.66,5.5,2.93,8.51,4.07-1.11.26-2.23.52-3.34.8-6.26,1.58-12.3,3.97-18.63,5.3-7.01,1.47-14.02,2.99-21.1,4.13-1.26.2-2.56.23-3.83-.11-2.43-.64-3.42-2.63-2.41-4.95.92-2.13,2.66-3.54,4.44-4.92,5.18-4.02,11.08-6.8,16.81-9.87.45-.24.91-.42,1.32-.04,1.71,1.56,3.84,2.2,6.01,2.66,4.12.87,8.2,1.93,12.16-.91,1.94-1.39,4.2-2.36,6.1-3.86Zm4.24,11.31c-1.17-.84-2.55-1.21-3.84-1.79-1.71-.76-3.42-1.51-5.4-2.37,2.57-.86,4.75-1.01,6.73.61,1.06.87,2.13,1.73,3.17,2.62.25.22.79.43.5.86-.27.41-.81.31-1.16.07Zm-25.08-3.48c-3.47,2.52-5.69,5.96-9.11,8.1-.39.24-.83.75-1.26.45-.48-.34-.04-.9.13-1.29.85-1.9,1.68-3.83,2.67-5.67,1.18-2.2,2.66-2.8,5.12-2.25.72.16,1.42.39,2.45.67Zm.16-13.81c.7-.11,1.41-.25,2.12-.27,5.26-.17,10.52-.43,15.79-.35.36,0,.78-.11,1.07.54-.96.24-1.78.45-2.71.24-.92-.21-1.87-.13-2.82-.08-4.46.25-8.93.46-13.39.69-.23.01-.52.08-.58-.24-.06-.36.23-.49.52-.53Zm-.07-4.59c2.2-.37,4.39-1.15,6.63-.15-2.21-.11-4.41.54-6.63.15Zm6.64-.15c.53-.86,1.49-.56,2.2-.62,3.06-.25,6.14-.32,9.22-.45.17,0,.35.07.53.33-3.96.61-7.99.22-11.94.73Zm-3.16,9.29c4.88-.24,9.75-.64,14.64-.62.14,0,.29-.03.43-.01.3.04.79-.09.73.4-.05.42-.55.41-.82.33-1.52-.43-3.05-.02-4.52.12-3.98.38-7.98.34-11.96.71-1.06.1-2.14.01-3.22.01,1.45-.9,3.12-.86,4.73-.94Zm-11.14-13.48c11.49-1.29,23.02-1.51,34.57-.6-11.52.06-23.03.03-34.57.6Zm29.18,3.22c1.77-.37,3.33-.27,4.84-.19-1.5.13-3.05.76-4.84.19Zm23.77-10.31c1.63,1.82,2.53,3.74,2.71,5.98.06.75-.18,1.46-1.01,1.68-.83.22-1.21-.42-1.5-1.02-1.02-2.11-1.05-4.26-.2-6.64Zm10.99,4.48c-.75,3.82-2.13,7.4-4.72,10.39-2.59,3-5.94,4.53-9.86,4.13-2.67-.28-5.28-1.12-7.76-2.23-1.26-.56-2.49-1.17-3.75-1.73-.93-.41-1.27-.98-.9-2.03.64-1.83,1.16-3.7,1.76-5.65,2.87,2.64,6.28,3.59,9.99,3.73.78.03,1.54-.1,2.19-.51.68-.42,1.16-.58.57-1.86-.87-1.9-1.77-4.01-1.63-6.26.05-.82.46-1.54.94-2.2.21-.3.44-.73.89-.5.34.18.22.6.14.91-.41,1.74-.51,3.47-.04,5.21.27,1.02.62,2,1.34,2.8.86.96,1.84.95,2.66-.06.8-.98,1-2.13.86-3.36-.23-1.96-.79-3.8-2-5.41-.56-.75-1.06-1.55-1.59-2.33.16-.1.33-.2.49-.3,3.77,2.24,4.43,6.05,4.72,10.11,1.32-2.63,1.14-5.57,2.12-8.24.89,1.91.16,3.96.58,6.02.72-.4.7-1.05.82-1.59.24-1.07.46-2.14.96-3.12.13-.24.24-.58.57-.58.43,0,.5.41.58.7.35,1.31.31,2.67.06,3.96Z" style="fill: #ba94ff;"/>
  <path d="m49.09,21.18c.93-1.39-.11-2.41-.6-3.73-.56,1.49.52,2.53.6,3.73Z" style="fill: #ba94ff;"/>
  <path d="m49.98,19.33c.29.23.56.08.74-.14.39-.49.64-1.02.06-1.81-.21,1.99-.92.38-1.44.36-.24.75.13,1.2.63,1.59Z" style="fill: #ba94ff;"/>
  <path d="m45.06,18.01c.04.89.16,1.75,1.02,1.71.79-.04.93-.86,1.06-1.91-.77.8-1.4,1.77-2.07.21Z" style="fill: #ba94ff;"/>
</svg>